REM DIRINDEX 1\2,1\3,1\4,1\5
REM DIRNAME "folder01","folder02","folder03","folder04","folder05"
TITLE ""
FILE "1Q_t_0888-0900.mp3" MP3
  TRACK 01 AUDIO
    TITLE "3:cjc172_3615"
    INDEX 01 00:00:00
  TRACK 02 AUDIO
    TITLE "0:"
    INDEX 01 00:01:10
  TRACK 03 AUDIO
    TITLE "4:cjc172_3616"
    INDEX 01 00:01:22
  TRACK 04 AUDIO
    TITLE "0:"
    INDEX 01 00:03:73
  TRACK 05 AUDIO
    TITLE "5:cjc172_3617"
    INDEX 01 00:04:04
  TRACK 06 AUDIO
    TITLE "0:"
    INDEX 01 00:09:72
  TRACK 07 AUDIO
    TITLE "3:cjc172_3618"
    INDEX 01 00:10:40
  TRACK 08 AUDIO
    TITLE "0:"
    INDEX 01 00:11:57
  TRACK 09 AUDIO
    TITLE "4:cjc172_3619"
    INDEX 01 00:11:65
  TRACK 10 AUDIO
    TITLE "0:"
    INDEX 01 00:14:67
  TRACK 11 AUDIO
    TITLE "5:cjc172_3620"
    INDEX 01 00:14:73
  TRACK 12 AUDIO
    TITLE "0:"
    INDEX 01 00:22:16
  TRACK 13 AUDIO
    TITLE "3:cjc172_3621"
    INDEX 01 00:22:63
  TRACK 14 AUDIO
    TITLE "0:"
    INDEX 01 00:24:09
  TRACK 15 AUDIO
    TITLE "4:cjc172_3622"
    INDEX 01 00:24:17
  TRACK 16 AUDIO
    TITLE "0:"
    INDEX 01 00:27:58
  TRACK 17 AUDIO
    TITLE "5:cjc172_3623"
    INDEX 01 00:27:66
  TRACK 18 AUDIO
    TITLE "0:"
    INDEX 01 00:34:46
  TRACK 19 AUDIO
    TITLE "3:cjc172_3624"
    INDEX 01 00:35:16
  TRACK 20 AUDIO
    TITLE "0:"
    INDEX 01 00:36:30
  TRACK 21 AUDIO
    TITLE "4:cjc172_3625"
    INDEX 01 00:36:37
  TRACK 22 AUDIO
    TITLE "0:"
    INDEX 01 00:38:68
  TRACK 23 AUDIO
    TITLE "5:cjc172_3626"
    INDEX 01 00:39:01
  TRACK 24 AUDIO
    TITLE "0:"
    INDEX 01 00:45:19
  TRACK 25 AUDIO
    TITLE "3:cjc172_3627"
    INDEX 01 00:45:66
  TRACK 26 AUDIO
    TITLE "0:"
    INDEX 01 00:47:14
  TRACK 27 AUDIO
    TITLE "4:cjc172_3628"
    INDEX 01 00:47:22
  TRACK 28 AUDIO
    TITLE "0:"
    INDEX 01 00:49:71
  TRACK 29 AUDIO
    TITLE "5:cjc172_3629"
    INDEX 01 00:50:04
  TRACK 30 AUDIO
    TITLE "0:"
    INDEX 01 00:56:62
  TRACK 31 AUDIO
    TITLE "3:cjc172_3630"
    INDEX 01 00:57:34
  TRACK 32 AUDIO
    TITLE "0:"
    INDEX 01 00:58:49
  TRACK 33 AUDIO
    TITLE "4:cjc172_3631"
    INDEX 01 00:58:59
  TRACK 34 AUDIO
    TITLE "0:"
    INDEX 01 01:01:14
  TRACK 35 AUDIO
    TITLE "5:cjc172_3632"
    INDEX 01 01:01:20
  TRACK 36 AUDIO
    TITLE "0:"
    INDEX 01 01:06:72
  TRACK 37 AUDIO
    TITLE "3:cjc172_3633"
    INDEX 01 01:07:42
  TRACK 38 AUDIO
    TITLE "0:"
    INDEX 01 01:09:02
  TRACK 39 AUDIO
    TITLE "4:cjc172_3634"
    INDEX 01 01:09:10
  TRACK 40 AUDIO
    TITLE "0:"
    INDEX 01 01:11:30
  TRACK 41 AUDIO
    TITLE "5:cjc172_3635"
    INDEX 01 01:11:36
  TRACK 42 AUDIO
    TITLE "0:"
    INDEX 01 01:19:10
  TRACK 43 AUDIO
    TITLE "3:cjc172_3636"
    INDEX 01 01:19:53
  TRACK 44 AUDIO
    TITLE "0:"
    INDEX 01 01:21:15
  TRACK 45 AUDIO
    TITLE "4:cjc172_3637"
    INDEX 01 01:21:24
  TRACK 46 AUDIO
    TITLE "0:"
    INDEX 01 01:23:74
  TRACK 47 AUDIO
    TITLE "5:cjc172_3638"
    INDEX 01 01:24:05
  TRACK 48 AUDIO
    TITLE "0:"
    INDEX 01 01:30:00
  TRACK 49 AUDIO
    TITLE "2:cjc172_3639"
    INDEX 01 01:30:45
  TRACK 50 AUDIO
    TITLE "0:"
    INDEX 01 01:31:50
  TRACK 51 AUDIO
    TITLE "3:cjc172_3640"
    INDEX 01 01:32:18
  TRACK 52 AUDIO
    TITLE "0:"
    INDEX 01 01:33:33
  TRACK 53 AUDIO
    TITLE "4:cjc172_3641"
    INDEX 01 01:33:41
  TRACK 54 AUDIO
    TITLE "0:"
    INDEX 01 01:36:18
  TRACK 55 AUDIO
    TITLE "5:cjc172_3642"
    INDEX 01 01:36:26
  TRACK 56 AUDIO
    TITLE "0:"
    INDEX 01 01:43:44
  TRACK 57 AUDIO
    TITLE "3:cjc172_3643"
    INDEX 01 01:44:16
  TRACK 58 AUDIO
    TITLE "0:"
    INDEX 01 01:45:41
  TRACK 59 AUDIO
    TITLE "4:cjc172_3644"
    INDEX 01 01:45:50
  TRACK 60 AUDIO
    TITLE "0:"
    INDEX 01 01:48:35
  TRACK 61 AUDIO
    TITLE "5:cjc172_3645"
    INDEX 01 01:48:45
  TRACK 62 AUDIO
    TITLE "0:"
    INDEX 01 01:55:59
  TRACK 63 AUDIO
    TITLE "3:cjc172_3646"
    INDEX 01 01:56:29
  TRACK 64 AUDIO
    TITLE "0:"
    INDEX 01 01:57:54
  TRACK 65 AUDIO
    TITLE "4:cjc172_3647"
    INDEX 01 01:57:65
  TRACK 66 AUDIO
    TITLE "0:"
    INDEX 01 02:00:44
  TRACK 67 AUDIO
    TITLE "5:cjc172_3648"
    INDEX 01 02:00:52
  TRACK 68 AUDIO
    TITLE "0:"
    INDEX 01 02:07:15
  TRACK 69 AUDIO
    TITLE "3:cjc172_3649"
    INDEX 01 02:07:60
  TRACK 70 AUDIO
    TITLE "0:"
    INDEX 01 02:09:18
  TRACK 71 AUDIO
    TITLE "4:cjc172_3650"
    INDEX 01 02:09:25
  TRACK 72 AUDIO
    TITLE "0:"
    INDEX 01 02:11:28
  TRACK 73 AUDIO
    TITLE "5:cjc172_3651"
    INDEX 01 02:11:36
  TRACK 74 AUDIO
    TITLE "0:"
    INDEX 01 02:16:63
  TRACK 75 AUDIO
    TITLE "3:cjc172_3652"
    INDEX 01 02:17:35
  TRACK 76 AUDIO
    TITLE "0:"
    INDEX 01 02:18:52
  TRACK 77 AUDIO
    TITLE "4:cjc172_3653"
    INDEX 01 02:18:64
  TRACK 78 AUDIO
    TITLE "0:"
    INDEX 01 02:21:58
  TRACK 79 AUDIO
    TITLE "5:cjc172_3654"
    INDEX 01 02:21:64
  TRACK 80 AUDIO
    TITLE "0:"
    INDEX 01 02:28:46
